HIERARCHY
ROOT Hips
{
	OFFSET 0.000000 0.000000 0.000000
	CHANNELS 6 Xposition Yposition Zposition Zrotation Yrotation Xrotation 
	JOINT LHipJoint
	{
		OFFSET 0.000000 0.000000 0.000000
		CHANNELS 3 Zrotation Yrotation Xrotation
		JOINT LeftUpLeg
		{
			OFFSET 8.178360 -10.767780 5.035740
			CHANNELS 3 Zrotation Yrotation Xrotation
			JOINT LeftLeg
			{
				OFFSET 14.688660 -40.356780 0.000000
				CHANNELS 3 Zrotation Yrotation Xrotation
				JOINT LeftFoot
				{
					OFFSET 15.373200 -42.237540 0.000000
					CHANNELS 3 Zrotation Yrotation Xrotation
					JOINT LeftToeBase
					{
						OFFSET 0.945840 -2.598660 13.935300
						CHANNELS 3 Zrotation Yrotation Xrotation
						End Site
						{
							OFFSET 0.000000 0.000000 0.000000
						}
					}
				}
			}
		}
	}
	JOINT RHipJoint
	{
		OFFSET 0.000000 0.000000 0.000000
		CHANNELS 3 Zrotation Yrotation Xrotation
		JOINT RightUpLeg
		{
			OFFSET -7.833120 -10.767780 5.035740
			CHANNELS 3 Zrotation Yrotation Xrotation
			JOINT RightLeg
			{
				OFFSET -15.255180 -41.913300 0.000000
				CHANNELS 3 Zrotation Yrotation Xrotation
				JOINT RightFoot
				{
					OFFSET -15.409560 -42.337380 0.000000
					CHANNELS 3 Zrotation Yrotation Xrotation
					JOINT RightToeBase
					{
						OFFSET -0.988380 -2.715540 14.178900
						CHANNELS 3 Zrotation Yrotation Xrotation
						End Site
						{
							OFFSET 0.000000 0.000000 0.000000
						}
					}
				}
			}
		}
	}
	JOINT LowerBack
	{
		OFFSET 0.000000 0.000000 0.000000
		CHANNELS 3 Zrotation Yrotation Xrotation
		JOINT Spine
		{
			OFFSET 0.169620 12.213540 -1.160280
			CHANNELS 3 Zrotation Yrotation Xrotation
			JOINT Spine1
			{
				OFFSET 0.340320 12.293100 -0.256500
				CHANNELS 3 Zrotation Yrotation Xrotation
				JOINT Neck
				{
					OFFSET 0.000000 0.000000 0.000000
					CHANNELS 3 Zrotation Yrotation Xrotation
					JOINT Neck1
					{
						OFFSET -0.325020 10.477440 1.032120
						CHANNELS 3 Zrotation Yrotation Xrotation
						JOINT Head
						{
							OFFSET 0.624420 10.568160 -0.743820
							CHANNELS 3 Zrotation Yrotation Xrotation
							End Site
							{
								OFFSET 0.000000 0.000000 0.000000
							}
						}
					}
				}
				JOINT LeftShoulder
				{
					OFFSET 0.000000 0.000000 0.000000
					CHANNELS 3 Zrotation Yrotation Xrotation
					JOINT LeftArm
					{
						OFFSET 20.174460 7.205340 -1.867260
						CHANNELS 3 Zrotation Yrotation Xrotation
						JOINT LeftForeArm
						{
							OFFSET 29.898000 -0.000000 -0.000000
							CHANNELS 3 Zrotation Yrotation Xrotation
							JOINT LeftHand
							{
								OFFSET 20.901360 -0.000000 -0.000000
								CHANNELS 3 Zrotation Yrotation Xrotation
								JOINT LeftFingerBase
								{
									OFFSET 0.000000 0.000000 0.000000
									CHANNELS 3 Zrotation Yrotation Xrotation
									JOINT LeftHandIndex1
									{
										OFFSET 4.291560 -0.000000 -0.000000
										CHANNELS 3 Zrotation Yrotation Xrotation
										End Site
										{
											OFFSET 0.000000 0.000000 0.000000
										}
									}
								}
								JOINT LThumb
								{
									OFFSET 0.000000 0.000000 0.000000
									CHANNELS 3 Zrotation Yrotation Xrotation
									End Site
									{
										OFFSET 0.000000 0.000000 0.000000
									}
								}
							}
						}
					}
				}
				JOINT RightShoulder
				{
					OFFSET 0.000000 0.000000 0.000000
					CHANNELS 3 Zrotation Yrotation Xrotation
					JOINT RightArm
					{
						OFFSET -18.819600 8.244300 -2.427900
						CHANNELS 3 Zrotation Yrotation Xrotation
						JOINT RightForeArm
						{
							OFFSET -31.451400 -0.000000 -0.000000
							CHANNELS 3 Zrotation Yrotation Xrotation
							JOINT RightHand
							{
								OFFSET -20.665020 -0.000000 -0.000000
								CHANNELS 3 Zrotation Yrotation Xrotation
								JOINT RightFingerBase
								{
									OFFSET 0.000000 0.000000 0.000000
									CHANNELS 3 Zrotation Yrotation Xrotation
									JOINT RightHandIndex1
									{
										OFFSET -3.735180 -0.000000 -0.000000
										CHANNELS 3 Zrotation Yrotation Xrotation
										End Site
										{
											OFFSET 0.000000 0.000000 0.000000
										}
									}
								}
								JOINT RThumb
								{
									OFFSET 0.000000 0.000000 0.000000
									CHANNELS 3 Zrotation Yrotation Xrotation
									End Site
									{
										OFFSET 0.000000 0.000000 0.000000
									}
								}
							}
						}
					}
				}
			}
		}
	}
}
MOTION
Frames:	8
Frame Time:	0.0333333
2.439408 102.480192 92.280306 -178.552067 0.357011 -175.331608 -1.828545 -2.459148 -1.145096 -14.578017 38.156194 -47.819690 12.246270 17.741076 57.205457 4.831798 -3.535242 7.758701 0.010800 0.671700 1.845900 1.971088 3.075208 -0.979140 19.484791 -37.071367 -48.158004 -13.066034 -18.218455 61.647261 -3.260464 0.318307 5.530422 -0.843400 -5.857800 16.372400 0.245545 1.932641 6.451703 1.137644 2.977318 -4.856315 0.010210 1.492128 -8.185979 -4.880069 -0.698043 -16.175656 7.448023 -0.631235 10.591390 0.571900 -0.066700 11.897900 4.260032 -7.407708 -1.815932 -6.387763 -8.740046 61.121439 113.793886 -61.293361 -90.956223 -3.206807 -1.821054 -12.737847 48.799617 -13.845131 -14.377000 -7.125000 0.000000 0.000000 16.765600 12.265800 -13.422600 0.982337 9.442993 -1.040270 2.466026 0.173099 56.655585 -104.648020 61.417016 -85.080382 -1.134454 2.499969 0.591890 -56.102871 36.541191 -38.031100 7.125000 0.000000 0.000000 -11.955500 17.858100 -15.317600 
2.369088 102.438000 92.356878 -178.641407 0.390391 -175.389302 -1.871063 -2.457190 -1.109363 -14.660811 38.151719 -47.754050 12.239294 17.743303 57.206168 4.757984 -3.362983 7.481642 0.002700 0.336500 0.924600 1.933478 3.042532 -1.000187 19.425281 -37.180949 -48.238545 -13.106509 -18.227210 61.698499 -3.289474 0.366254 5.450807 -0.850900 -5.883200 16.445900 0.296934 1.934861 6.419322 1.131719 2.979048 -4.851758 -0.017050 1.488571 -8.113318 -4.888072 -0.701925 -16.261061 7.476547 -0.643836 10.752009 0.606500 -0.073900 12.044900 4.244333 -7.364587 -1.814386 -6.507197 -8.773416 61.147624 114.041583 -61.177193 -91.082223 -3.190577 -1.816703 -12.817199 48.677630 -13.828610 -14.311700 -7.125000 0.000000 0.000000 16.680800 12.307500 -13.333100 0.984382 9.430798 -1.043075 2.622924 0.134634 56.527892 -104.680938 61.374666 -85.096341 -1.123420 2.471367 0.232220 -55.994867 36.503476 -37.932700 7.125000 0.000000 0.000000 -11.919700 17.786800 -15.260800 
2.298762 102.452064 92.440482 -178.726056 0.415373 -175.471972 -1.919439 -2.452897 -1.068815 -14.651726 38.103457 -47.600741 12.192528 17.726389 57.095355 4.631984 -3.096406 7.446332 0.001100 -0.210700 -0.578800 1.920875 3.018262 -1.012340 19.311884 -37.218151 -48.220846 -13.100503 -18.220624 61.625053 -3.275615 0.319907 5.366309 -0.820300 -5.779100 16.144900 0.378939 1.940032 6.439544 1.119810 2.991021 -4.851111 -0.095336 1.484806 -8.104021 -4.884136 -0.712023 -16.263029 7.515454 -0.673214 10.830979 0.645200 -0.086100 12.113600 4.231071 -7.329760 -1.812943 -6.548049 -8.736518 61.077350 114.362899 -61.070605 -91.269380 -3.168577 -1.816060 -12.866396 48.624778 -13.721710 -14.163300 -7.125000 0.000000 0.000000 16.660200 12.471200 -13.255500 0.979344 9.409020 -1.054951 2.710919 -0.026608 56.445278 -105.033580 61.335395 -85.351355 -1.149958 2.472945 0.113643 -55.906901 36.471629 -37.810900 7.125000 0.000000 0.000000 -11.867900 17.705700 -15.181400 
2.222970 102.492690 92.553780 -178.764515 0.448254 -175.541531 -1.955187 -2.465965 -1.037684 -14.522088 37.972851 -47.381451 12.144622 17.697557 56.972335 4.288411 -2.442378 7.590908 0.045200 -1.372600 -3.774600 1.935448 3.031631 -1.027174 19.246117 -37.151773 -48.192838 -13.056485 -18.201175 61.478883 -3.204651 0.156952 5.164842 -0.794300 -5.688900 15.884300 0.560176 1.939640 6.517567 1.101562 3.010849 -4.859807 -0.252875 1.476499 -8.175976 -4.860443 -0.693334 -16.200190 7.544186 -0.668347 10.819344 0.683800 -0.082600 12.102300 4.219810 -7.315852 -1.820086 -6.507333 -8.610673 60.914699 114.607356 -61.022767 -91.436708 -3.152231 -1.827940 -12.972748 48.585149 -13.579616 -13.972000 -7.125000 0.000000 0.000000 16.665900 12.695300 -13.178700 0.977388 9.381668 -1.061942 2.788269 -0.217749 56.475739 -105.354628 61.301607 -85.590606 -1.180770 2.485789 0.136086 -55.838545 36.484531 -37.728600 7.125000 0.000000 0.000000 -11.806800 17.675100 -15.096300 
2.148744 102.544260 92.696772 -178.764467 0.434525 -175.551182 -2.001006 -2.532877 -1.036483 -14.302110 37.653357 -47.094465 12.081312 17.660050 56.853956 4.231814 -2.338537 7.775098 0.075400 -1.771000 -4.873200 1.951120 3.090255 -1.059662 19.193623 -36.984926 -48.179785 -13.003144 -18.170477 61.338103 -3.090631 -0.068418 5.042344 -0.795900 -5.694300 15.900100 0.736145 1.926578 6.549936 1.101013 3.010479 -4.868295 -0.316709 1.467811 -8.227747 -4.861902 -0.654222 -16.166662 7.559549 -0.611265 10.779108 0.713000 -0.057300 12.071000 4.215832 -7.312781 -1.839202 -6.460352 -8.484866 60.680141 114.570561 -61.073064 -91.450944 -3.152990 -1.846423 -13.123068 48.514903 -13.531234 -13.877200 -7.125000 0.000000 0.000000 16.642200 12.796000 -13.121500 0.983622 9.366132 -1.066726 2.798410 -0.381968 56.503988 -105.357857 61.335007 -85.632889 -1.180386 2.500630 0.183430 -55.655684 36.512592 -37.553900 7.125000 0.000000 0.000000 -11.707100 17.582500 -14.952300 
2.084670 102.621618 92.863980 -178.788442 0.371301 -175.524159 -2.088270 -2.651590 -1.045819 -14.132823 37.214108 -46.796321 11.971693 17.603197 56.655210 4.278859 -2.412625 7.906889 0.061200 -1.596200 -4.391000 1.973543 3.178747 -1.106105 19.003987 -36.689222 -48.060099 -12.928834 -18.123986 61.146423 -3.017206 -0.212887 5.083983 -0.814900 -5.760300 16.090400 0.835068 1.921231 6.556073 1.105971 3.010076 -4.875204 -0.331335 1.467964 -8.256505 -4.778179 -0.573381 -16.179002 7.536409 -0.513895 10.739483 0.686800 -0.006000 12.049500 4.216764 -7.312733 -1.859444 -6.449751 -8.412259 60.528842 114.300708 -61.183309 -91.318751 -3.176730 -1.864106 -13.233911 48.512184 -13.522332 -13.865900 -7.125000 0.000000 0.000000 16.664200 12.817600 -13.132600 1.003976 9.355320 -1.071650 2.824745 -0.554287 56.444033 -105.174240 61.399585 -85.565752 -1.154195 2.508960 0.261899 -55.389154 36.518792 -37.298900 7.125000 0.000000 0.000000 -11.587300 17.422600 -14.773300 
2.013570 102.748980 93.067134 -178.854166 0.339451 -175.530742 -2.217063 -2.790565 -1.046628 -13.823882 36.610770 -46.278645 11.818779 17.534717 56.366518 4.289108 -2.413775 8.155051 0.061100 -1.594400 -4.386000 2.017134 3.278267 -1.157720 18.552057 -36.204058 -47.669375 -12.810014 -18.064882 60.835432 -3.014155 -0.234896 5.315196 -0.842900 -5.856100 16.367300 0.891449 1.939852 6.589972 1.108061 3.029210 -4.865951 -0.360503 1.481076 -8.240593 -4.579190 -0.419966 -16.143618 7.456133 -0.353551 10.638792 0.589800 0.081800 11.951600 4.223558 -7.324016 -1.865956 -6.521506 -8.367983 60.452370 113.946636 -61.301020 -91.121622 -3.213061 -1.891664 -13.387508 48.494174 -13.434992 -13.758800 -7.125000 0.000000 0.000000 16.707600 12.958500 -13.118300 1.039781 9.334953 -1.063761 2.910884 -0.624638 56.269920 -104.735070 61.475150 -85.311420 -1.099758 2.487757 0.096168 -55.175156 36.529777 -37.142900 7.125000 0.000000 0.000000 -11.510600 17.327800 -14.659900 
1.908864 102.907596 93.294510 -178.825438 0.397159 -175.616065 -2.343552 -2.915754 -1.043073 -13.194366 35.838608 -45.472154 11.669555 17.471121 56.082342 4.400181 -2.617649 8.547686 0.065800 -1.655100 -4.553300 2.108437 3.397280 -1.193633 17.845022 -35.415702 -46.910064 -12.622484 -17.996414 60.382240 -3.024239 -0.236430 5.729429 -0.842400 -5.854400 16.362500 1.131096 1.958363 6.711413 1.104926 3.068240 -4.854250 -0.471621 1.487200 -8.241904 -4.519669 -0.288295 -16.114438 7.463170 -0.183118 10.581071 0.615900 0.163500 11.890900 4.208985 -7.337824 -1.876315 -6.641358 -8.280590 60.481288 113.517613 -61.434545 -90.881381 -3.261525 -1.918280 -13.495242 48.475736 -13.343827 -13.651900 -7.125000 0.000000 0.000000 16.758200 13.101800 -13.109000 1.057106 9.327741 -1.044330 3.002093 -0.545485 56.134066 -104.295606 61.504069 -85.018761 -1.048687 2.464700 -0.269066 -54.875632 36.506283 -36.879500 7.125000 0.000000 0.000000 -11.405900 17.144100 -14.498400 
